<?xml version="1.0" encoding="UTF-8"?>
<!DOCTYPE svg
  PUBLIC '-//W3C//DTD SVG 1.1//EN'
  'http://www.w3.org/Graphics/SVG/1.1/DTD/svg11.dtd'>
<svg version="1.1" xmlns="http://www.w3.org/2000/svg" width="59.000mm" height="71.294mm">
    <!--Autogenerated with python-barcode 0.15.1-->
    <g id="barcode_group">
        <rect width="100%" height="100%" style="fill:white"/>
        <rect x="0.500mm" y="10.000mm" width="0.800mm" height="8.000mm" style="fill:black;"/>
        <rect x="1.700mm" y="10.000mm" width="0.400mm" height="8.000mm" style="fill:black;"/>
        <rect x="2.900mm" y="10.000mm" width="0.400mm" height="8.000mm" style="fill:black;"/>
        <rect x="4.900mm" y="10.000mm" width="1.200mm" height="8.000mm" style="fill:black;"/>
        <rect x="6.500mm" y="10.000mm" width="1.200mm" height="8.000mm" style="fill:black;"/>
        <rect x="8.100mm" y="10.000mm" width="0.800mm" height="8.000mm" style="fill:black;"/>
        <rect x="9.300mm" y="10.000mm" width="1.200mm" height="8.000mm" style="fill:black;"/>
        <rect x="10.900mm" y="10.000mm" width="0.800mm" height="8.000mm" style="fill:black;"/>
        <rect x="12.100mm" y="10.000mm" width="0.400mm" height="8.000mm" style="fill:black;"/>
        <rect x="13.700mm" y="10.000mm" width="0.800mm" height="8.000mm" style="fill:black;"/>
        <rect x="14.900mm" y="10.000mm" width="1.200mm" height="8.000mm" style="fill:black;"/>
        <rect x="17.300mm" y="10.000mm" width="0.400mm" height="8.000mm" style="fill:black;"/>
        <rect x="18.100mm" y="10.000mm" width="0.800mm" height="8.000mm" style="fill:black;"/>
        <rect x="20.100mm" y="10.000mm" width="0.400mm" height="8.000mm" style="fill:black;"/>
        <rect x="20.900mm" y="10.000mm" width="0.400mm" height="8.000mm" style="fill:black;"/>
        <rect x="22.500mm" y="10.000mm" width="0.400mm" height="8.000mm" style="fill:black;"/>
        <rect x="24.100mm" y="10.000mm" width="1.200mm" height="8.000mm" style="fill:black;"/>
        <rect x="25.700mm" y="10.000mm" width="0.800mm" height="8.000mm" style="fill:black;"/>
        <rect x="26.900mm" y="10.000mm" width="0.400mm" height="8.000mm" style="fill:black;"/>
        <rect x="27.700mm" y="10.000mm" width="1.200mm" height="8.000mm" style="fill:black;"/>
        <rect x="30.100mm" y="10.000mm" width="0.800mm" height="8.000mm" style="fill:black;"/>
        <rect x="31.300mm" y="10.000mm" width="0.400mm" height="8.000mm" style="fill:black;"/>
        <rect x="32.500mm" y="10.000mm" width="0.800mm" height="8.000mm" style="fill:black;"/>
        <rect x="33.700mm" y="10.000mm" width="1.200mm" height="8.000mm" style="fill:black;"/>
        <rect x="35.700mm" y="10.000mm" width="0.400mm" height="8.000mm" style="fill:black;"/>
        <rect x="36.900mm" y="10.000mm" width="1.200mm" height="8.000mm" style="fill:black;"/>
        <rect x="38.900mm" y="10.000mm" width="0.800mm" height="8.000mm" style="fill:black;"/>
        <rect x="40.100mm" y="10.000mm" width="0.800mm" height="8.000mm" style="fill:black;"/>
        <rect x="41.700mm" y="10.000mm" width="1.200mm" height="8.000mm" style="fill:black;"/>
        <rect x="43.700mm" y="10.000mm" width="0.400mm" height="8.000mm" style="fill:black;"/>
        <rect x="44.500mm" y="10.000mm" width="0.800mm" height="8.000mm" style="fill:black;"/>
        <rect x="46.100mm" y="10.000mm" width="0.400mm" height="8.000mm" style="fill:black;"/>
        <rect x="46.900mm" y="10.000mm" width="1.200mm" height="8.000mm" style="fill:black;"/>
        <rect x="48.900mm" y="10.000mm" width="1.200mm" height="8.000mm" style="fill:black;"/>
        <rect x="50.500mm" y="10.000mm" width="0.400mm" height="8.000mm" style="fill:black;"/>
        <rect x="51.700mm" y="10.000mm" width="0.800mm" height="8.000mm" style="fill:black;"/>
        <rect x="53.300mm" y="10.000mm" width="0.800mm" height="8.000mm" style="fill:black;"/>
        <rect x="55.300mm" y="10.000mm" width="1.200mm" height="8.000mm" style="fill:black;"/>
        <rect x="56.900mm" y="10.000mm" width="0.400mm" height="8.000mm" style="fill:black;"/>
        <rect x="57.700mm" y="10.000mm" width="0.800mm" height="8.000mm" style="fill:black;"/>
        <text x="29.500mm" y="20.500mm" style="fill:black;font-size:4.5pt;text-anchor:middle;">Human Readable Text </text>
        <text x="29.500mm" y="23.088mm" style="fill:black;font-size:4.5pt;text-anchor:middle;"> abc </text>
        <text x="29.500mm" y="25.675mm" style="fill:black;font-size:4.5pt;text-anchor:middle;"> cef</text>
    </g>
</svg>
